PathFileType	4	(X/Y/Z)	Patient4_TMGait_0pt7_01_right_03.trc.trc
DataRate	CameraRate	NumFrames	NumMarkers	Units	OrigDataRate	OrigDataStartFrame	OrigNumFrames
85.889570552147	85.889570552147	4	33	mm	85.889570552147	1	       141
Frame#	Time	Sacral			L.Shoulder			Chest			R.Shoulder			Neck			R.ASIS			L.ASIS			R.Thigh.Superior			R.Thigh.Lateral			R.Thigh.Inferior			R.Patella			L.Thigh.Superior			L.Thigh.Lateral			L.Thigh.Inferior			L.Patella			L.Shank.Superior			L.Shank.Lateral			L.Shank.Inferior			R.Shank.Superior			R.Shank.Lateral			R.Shank.Inferior			R.Heel			R.Midfoot.Superior			R.Midfoot.Lateral			R.Toe			L.Heel			L.Midfoot.Lateral			L.Midfoot.Superior			L.Toe			L.Elbow			L.Wrist			R.Elbow			R.Wrist			
		X1	Y1	Z1	X2	Y2	Z2	X3	Y3	Z3	X4	Y4	Z4	X5	Y5	Z5	X6	Y6	Z6	X7	Y7	Z7	X8	Y8	Z8	X9	Y9	Z9	X10	Y10	Z10	X11	Y11	Z11	X12	Y12	Z12	X13	Y13	Z13	X14	Y14	Z14	X15	Y15	Z15	X16	Y16	Z16	X17	Y17	Z17	X18	Y18	Z18	X19	Y19	Z19	X20	Y20	Z20	X21	Y21	Z21	X22	Y22	Z22	X23	Y23	Z23	X24	Y24	Z24	X25	Y25	Z25	X26	Y26	Z26	X27	Y27	Z27	X28	Y28	Z28	X29	Y29	Z29	X30	Y30	Z30	X31	Y31	Z31	X32	Y32	Z32	X33	Y33	Z33	

1	2.880000000000	709.483632088309	1011.029585892122	497.902599021435	911.940880308741	1414.839620656008	290.430803264196	1002.378995548261	1357.405748772855	464.532218893620	911.798848599835	1455.138902556134	623.979864661312	908.798349053172	1492.009484067956	439.285917982275	930.523310479544	945.435736334216	621.993450099682	927.307344337819	962.413995528132	348.136037036118	1012.926418476327	776.891685360576	610.361200640870	964.949698137071	655.957417151417	684.737013594497	1064.965038552592	616.774641298138	619.332511833512	1081.143240631544	502.745206414080	644.983258990451	967.499545355716	753.952345414555	366.193881540522	874.192093866294	641.664605426575	309.686975233779	961.670385954139	561.644643123404	365.201561450400	960.697731056004	492.862112742856	372.616586695710	934.864600205753	421.100881149772	366.872881010474	842.190171761579	304.974827346430	324.420870495660	903.787127588224	195.823986271450	391.818247624086	1004.294032982830	427.808461335215	639.315404229809	875.299759855092	389.263902006328	682.162786048009	865.795093919387	281.719814846127	629.288308273901	669.246710194861	223.023952925900	573.046490642568	830.604506903162	162.632999048198	634.605602311305	717.539893953459	162.061351010709	653.140593680677	890.618683343343	49.932864881417	669.592564153032	783.708715048431	37.038776203112	442.555550615004	855.623723517322	34.402565358082	358.914226457777	937.988668482655	97.920754584561	382.627929486846	1066.484448123340	50.307166945489	353.801060399208	879.478815758872	1057.905667022438	199.318250394627	966.341719932949	812.938109393606	200.592090165085	795.003524276794	1142.081651816675	768.561985016054	892.294202181633	898.736798679505	776.557376056135	
2	2.891642857143	708.410910785807	1010.819644386877	496.811758048501	912.041325970811	1414.591431723896	289.994360729400	1001.706324956446	1357.264242841936	464.471193364240	910.568760522334	1455.017234970138	623.546930619101	908.289773905336	1491.847181462577	438.713787687595	929.309631478637	945.736897066569	621.917455251839	927.026683547365	962.463259901051	348.007137871401	1013.670882553301	779.466625037006	609.602558167690	968.316023942141	657.982574426534	684.235296336475	1068.309118630513	620.353774103877	617.935107134869	1087.015010353691	507.304565893474	643.835709330270	965.387744142451	753.077066954155	366.889106505766	870.993820119443	641.629335155517	309.607186606183	957.152238752821	560.708704402136	365.473164930940	955.381831678086	492.017619811669	373.013333711153	929.169556304838	420.520808203315	367.164593791292	835.885745580299	305.060417365069	324.352637048558	896.233039998161	195.434796728785	391.977052724116	1013.026868621122	430.314471889254	638.932795225797	886.355452427444	386.483703267972	682.576079066783	881.331600112037	278.492331232970	630.177299398197	687.756813735645	211.133949631638	575.245482245833	851.392345734184	158.106739074201	636.175519325757	738.890180357722	152.948643959673	655.485165973404	916.197592632414	48.542072621062	671.489996972547	775.128916138558	37.098873920418	442.559456900808	847.078555865976	34.451065140385	358.973771265846	929.578265102964	97.615679815015	382.773303483767	1058.004245749801	49.788549513943	353.799174937739	885.184990429233	1057.613889819026	198.169531382197	983.578779826143	817.619637849015	201.436050072965	789.519391240425	1143.517074766801	767.479104801710	869.008668919674	895.836721561353	780.509926989131	
3	2.903285714286	707.348511847440	1010.595625587823	495.768350968607	912.151854972620	1414.335728325207	289.599757651211	1001.053532784945	1357.098310499964	464.443713638620	909.373883974540	1454.867618182274	623.156583751624	907.795975774425	1491.666060291102	438.194144424527	928.113044492539	945.997415743627	621.851618881480	926.811444531667	962.544099988535	347.860565024319	1014.383733314456	781.948790787787	608.849543047352	971.578388305960	659.916155158426	683.699821013464	1071.518328911896	623.793831072522	616.521233857565	1092.691571137559	511.751370906447	642.676293525094	963.322038117218	752.213815649074	367.576232602472	867.853290665762	641.581966475443	309.543301906213	952.702987891641	559.781300695184	365.757949059932	950.151702589930	491.177735356802	373.428810623456	923.568559361061	419.936165157608	367.480625031095	829.696352828942	305.135485263647	324.292687743167	888.788714267399	195.041680683513	392.151101392807	1021.576134168766	432.724628855768	638.543532957822	897.279910874256	383.614118199228	683.010513464786	896.751222951994	275.202558805372	631.097572476701	706.216191213399	199.192812480102	577.495803685581	872.069756495430	153.545216809937	637.792696743733	760.156354941256	143.818305045513	657.878965090171	941.643242431054	47.160252351042	673.466343507517	766.654749693059	37.158159791882	442.561379833095	838.634788790466	34.500300348116	359.034071525122	921.270614636558	97.312944746810	382.923729320434	1049.629320279361	49.263464091890	353.793160820724	890.764905086518	1057.337281054945	197.057377121851	1000.607156844768	822.402566863702	202.319326087428	784.086706628967	1144.943923305580	766.434570686114	846.137205715615	893.254442562800	784.398990346642	
4	2.914928571429	706.310326204834	1010.342527075107	494.820958763076	912.287741667021	1414.063458622781	289.302232981082	1000.444624858769	1356.878455370304	464.495661733956	908.254824792481	1454.658158686912	622.863977575401	907.339200006884	1491.444375879797	437.790951182512	926.951648465892	946.172930823523	621.815558534091	926.707228557813	962.670473042515	347.695491605230	1014.996579865515	784.206248083041	608.117127443302	974.564250562574	661.636400751047	683.113872390982	1074.392562186573	626.911912761695	615.090382230863	1097.918176736145	515.964760227603	641.488423476861	961.321675966900	751.360258134046	368.262729258705	864.794481638285	641.509551057608	309.514654368814	948.336960491145	558.862448073542	366.083288850395	945.026665258404	490.340379627927	373.894484581245	918.085968608127	419.338472513038	367.851646306389	823.665498728600	305.190355057013	324.250565245460	881.486365686088	194.641606590196	392.358672432794	1029.754379044190	434.953292039201	638.146062053467	908.023172107097	380.544588507336	683.503005006047	912.078239182787	271.816178684663	632.089288146880	724.844722595879	187.117415144854	579.868019800951	892.764988384920	148.969842094598	639.514898606187	781.537428845434	134.655437818452	660.379462943856	967.082932375549	45.912413578690	675.579113563375	758.305272084693	37.218464254454	442.559879396470	830.308560916776	34.551861229980	359.096115942541	913.083605823414	97.015488094333	383.084315609372	1041.378110061676	48.726659140218	353.780399786796	896.120901513195	1057.094072999066	196.025854662722	1017.302262098835	827.512594936119	203.307575935446	778.720367153786	1146.385865066697	765.484261741412	824.012712486937	891.305174456699	788.182920597563	
